<svg xmlns="http://www.w3.org/2000/svg" viewBox="0 0 512 512" width="512" height="512">
  <!-- Background gradient -->
  <defs>
    <linearGradient id="bgGradient" x1="0%" y1="0%" x2="100%" y2="100%">
      <stop offset="0%" style="stop-color:#667eea;stop-opacity:1" />
      <stop offset="100%" style="stop-color:#764ba2;stop-opacity:1" />
    </linearGradient>
    <linearGradient id="iconGradient" x1="0%" y1="0%" x2="100%" y2="100%">
      <stop offset="0%" style="stop-color:#ffffff;stop-opacity:1" />
      <stop offset="100%" style="stop-color:#f0f0f0;stop-opacity:1" />
    </linearGradient>
  </defs>
  
  <!-- Background rounded square -->
  <rect width="512" height="512" rx="110" fill="url(#bgGradient)"/>
  
  <!-- Heartbeat icon -->
  <g transform="translate(256, 256)">
    <!-- Heart shape -->
    <path d="M0,-60 C-30,-90 -80,-90 -80,-50 C-80,-20 -40,20 0,60 C40,20 80,-20 80,-50 C80,-90 30,-90 0,-60 Z" 
          fill="url(#iconGradient)" 
          stroke="white" 
          stroke-width="8"/>
    
    <!-- ECG line -->
    <g transform="translate(0, 10)">
      <polyline points="-120,0 -80,0 -60,-40 -40,40 -20,-30 0,0 20,0 40,-50 60,30 80,-20 100,0 120,0" 
                fill="none" 
                stroke="#ff6b6b" 
                stroke-width="8" 
                stroke-linecap="round" 
                stroke-linejoin="round"
                opacity="0.9"/>
    </g>
    
    <!-- Medical cross (small) -->
    <g transform="translate(-60, -60) scale(0.4)">
      <rect x="-15" y="-45" width="30" height="90" fill="white" rx="5"/>
      <rect x="-45" y="-15" width="90" height="30" fill="white" rx="5"/>
    </g>
  </g>
  
  <!-- Text badge -->
  <text x="256" y="460" 
        font-family="Arial, sans-serif" 
        font-size="48" 
        font-weight="bold" 
        fill="white" 
        text-anchor="middle"
        opacity="0.9">
    CEC
  </text>
</svg>
